<svg height="512pt" viewBox="0 0 512 511" width="512pt" xmlns="http://www.w3.org/2000/svg"><path d="m348.46875 142.972656c-.789062 28.683594-14.65625 54-35.722656 70.367188-15.664063 12.175781-35.3125 19.40625-56.519532 19.40625h-.039062c-.847656 0-1.6875-.011719-2.539062-.039063-20.375-.5625-39.050782-7.71875-54.027344-19.378906-22.417969-17.4375-36.542969-44.929687-35.703125-75.433594.667969-24.65625 10.90625-47.5625 28.8125-64.507812 17.296875-16.378907 39.742187-25.285157 63.457031-25.277344.851562 0 1.691406.019531 2.539062.042969 24.648438.679687 47.5625 10.917968 64.507813 28.824218 16.949219 17.90625 25.917969 41.339844 25.234375 65.996094zm0 0" fill="#cae8f9"/><path d="m150.753906 259.941406-134.859375-84.261718-15.894531 25.441406 34.589844 21.609375-20.925782 14.355469 16.964844 24.734374 31.707032-21.753906 72.523437 45.3125zm0 0" fill="#ff8900"/><path d="m512 201.121094-15.894531-25.441406-134.859375 84.261718 15.894531 25.4375 72.523437-45.3125 31.707032 21.753906 16.964844-24.734374-20.925782-14.355469zm0 0" fill="#c06100"/><path d="m411.027344 357.441406c0 1.460938-.019532 2.917969-.058594 4.378906-1.128906 41.351563-18.308594 79.773438-48.339844 108.199219-28.984375 27.433594-66.589844 42.390625-106.332031 42.390625h-.109375c-1.410156 0-2.839844-.019531-4.257812-.058594-41.34375-1.140624-79.765626-18.308593-108.199219-48.351562-28.425781-30.035156-43.460938-69.347656-42.320313-110.6875 1.136719-41.34375 18.304688-79.773438 48.339844-108.199219 14.6875-13.90625 31.59375-24.605469 49.871094-31.785156 17.804687-6.988281 36.921875-10.628906 56.566406-10.605469 1.421875 0 2.839844.019532 4.261719.058594 18.195312.5 35.832031 4.109375 52.296875 10.558594 20.949218 8.199218 39.992187 20.976562 55.902344 37.792968 27.421874 28.972657 42.378906 66.574219 42.378906 106.308594zm0 0" fill="#cae8f9"/><path d="m411.027344 357.441406c0 1.460938-.019532 2.917969-.058594 4.378906-1.128906 41.351563-18.308594 79.773438-48.339844 108.199219-28.984375 27.433594-66.589844 42.390625-106.332031 42.390625h-.109375v-464.300781c.851562 0 1.691406.019531 2.539062.042969 24.648438.679687 47.5625 10.917968 64.507813 28.824218 16.949219 17.90625 25.917969 41.339844 25.234375 65.996094-.789062 28.683594-14.65625 54-35.722656 70.367188 20.949218 8.199218 39.992187 20.976562 55.902344 37.792968 27.421874 28.972657 42.378906 66.574219 42.378906 106.308594zm0 0" fill="#84caff"/><path d="m165.277344.5h181.242187v118.976562h-181.242187zm0 0" fill="#ff3800"/><path d="m256.1875 243.058594h78.050781v125.039062h-78.050781zm0 0" fill="#901"/><path d="m256.1875.5h90.332031v118.976562h-90.332031zm0 0" fill="#c2001b"/><path d="m149.757812 89.484375h212.28125v29.992187h-212.28125zm0 0" fill="#fec000"/><path d="m256.1875 89.484375h105.851562v29.992187h-105.851562zm0 0" fill="#ff8900"/><path d="m130.59375 188.398438h250.820312v78.046874h-250.820312zm0 0" fill="#ff3800"/><path d="m256.191406 188.398438h125.222656v78.046874h-125.222656zm0 0" fill="#c2001b"/></svg>