<svg height="512pt" viewBox="0 0 512 512" width="512pt" xmlns="http://www.w3.org/2000/svg"><path d="m503.464844 25.601562v307.199219h-494.929688v-307.199219c.027344-9.414062 7.652344-17.039062 17.066406-17.066406h460.796876c9.414062.027344 17.039062 7.652344 17.066406 17.066406zm0 0" fill="#37474f"/><g fill="#607d8b"><path d="m503.464844 332.800781v51.199219c-.027344 9.414062-7.652344 17.039062-17.066406 17.066406h-460.796876c-9.414062-.027344-17.039062-7.652344-17.066406-17.066406v-51.199219zm0 0"/><path d="m503.464844 486.398438v8.535156c0 4.710937-3.820313 8.53125-8.53125 8.53125h-85.332032c-4.714843 0-8.535156-3.820313-8.535156-8.53125v-8.535156c.035156-23.316407 15.824219-43.664063 38.398438-49.492188 4.175781-1.132812 8.476562-1.707031 12.800781-1.707031 28.261719.042969 51.160156 22.941406 51.199219 51.199219zm0 0"/><path d="m477.867188 25.601562v307.199219h-469.332032v-307.199219c.027344-9.414062 7.652344-17.039062 17.066406-17.066406h435.199219c9.414063.027344 17.039063 7.652344 17.066407 17.066406zm0 0"/></g><path d="m477.867188 332.800781v51.199219c-.027344 9.414062-7.652344 17.039062-17.066407 17.066406h-435.199219c-9.414062-.027344-17.039062-7.652344-17.066406-17.066406v-51.199219zm0 0" fill="#cfd8dc"/><path d="m477.867188 486.398438v8.535156c0 4.710937-3.820313 8.53125-8.535157 8.53125h-59.730469c-4.714843 0-8.535156-3.820313-8.535156-8.53125v-8.535156c.035156-23.316407 15.824219-43.664063 38.398438-49.492188 8.878906 2.1875 16.972656 6.792969 23.382812 13.3125 9.648438 9.5625 15.058594 22.597656 15.019532 36.179688zm0 0" fill="#cfd8dc"/><path d="m59.734375 59.734375h51.199219v51.199219h-51.199219zm0 0" fill="#cddc39"/><path d="m59.734375 110.933594h51.199219v51.199218h-51.199219zm0 0" fill="#4caf50"/><path d="m59.734375 162.132812h51.199219v51.199219h-51.199219zm0 0" fill="#cddc39"/><path d="m59.734375 213.332031h51.199219v51.203125h-51.199219zm0 0" fill="#4caf50"/><path d="m401.066406 59.734375h51.199219v51.199219h-51.199219zm0 0" fill="#cddc39"/><path d="m401.066406 110.933594h51.199219v51.199218h-51.199219zm0 0" fill="#4caf50"/><path d="m401.066406 162.132812h51.199219v51.199219h-51.199219zm0 0" fill="#cddc39"/><path d="m401.066406 213.332031h51.199219v51.203125h-51.199219zm0 0" fill="#4caf50"/><path d="m110.933594 59.734375h290.132812v204.800781h-290.132812zm0 0" fill="#4caf50"/><path d="m196.265625 392.535156h119.46875v68.265625h-119.46875zm0 0" fill="#607d8b"/><path d="m187.734375 452.265625h136.53125c18.851563 0 34.132813 15.28125 34.132813 34.132813v17.066406h-204.796876v-17.066406c0-18.851563 15.28125-34.132813 34.132813-34.132813zm0 0" fill="#cfd8dc"/><path d="m358.398438 162.132812c0 56.554688-45.84375 102.402344-102.398438 102.402344s-102.398438-45.847656-102.398438-102.402344c0-56.554687 45.84375-102.398437 102.398438-102.398437s102.398438 45.84375 102.398438 102.398437zm0 0" fill="#cddc39"/><path d="m230.398438 132.351562v62.636719c0 3.5625 1.929687 6.847657 5.046874 8.574219 3.117188 1.726562 6.925782 1.625 9.949219-.265625l50.097657-31.316406c2.867187-1.789063 4.609374-4.929688 4.609374-8.3125 0-3.378907-1.742187-6.519531-4.609374-8.308594l-50.097657-31.308594c-3.019531-1.890625-6.828125-1.992187-9.945312-.265625-3.113281 1.722656-5.046875 5.003906-5.050781 8.566406zm0 0" fill="#cfd8dc"/><path d="m486.398438 0h-460.796876c-14.140624 0-25.601562 11.460938-25.601562 25.601562v358.398438c0 14.136719 11.460938 25.601562 25.601562 25.601562h162.132813v34.132813c-23.554687.027344-42.640625 19.113281-42.667969 42.664063v17.066406c0 4.714844 3.820313 8.535156 8.535156 8.535156h204.796876c4.714843 0 8.535156-3.820312 8.535156-8.535156v-17.066406c-.027344-23.550782-19.113282-42.636719-42.667969-42.664063v-34.132813h162.132813c14.140624 0 25.601562-11.464843 25.601562-25.601562v-358.398438c0-14.140624-11.460938-25.601562-25.601562-25.601562zm-469.332032 25.601562c0-4.714843 3.820313-8.535156 8.535156-8.535156h460.796876c4.714843 0 8.535156 3.820313 8.535156 8.535156v298.664063h-477.867188zm332.800782 460.796876v8.535156h-187.734376v-8.535156c0-14.136719 11.460938-25.597657 25.601563-25.597657h136.53125c14.140625 0 25.601563 11.460938 25.601563 25.597657zm-42.667969-42.664063h-102.398438v-34.132813h102.398438zm187.734375-59.734375c0 4.710938-3.820313 8.535156-8.535156 8.535156h-460.796876c-4.714843 0-8.535156-3.824218-8.535156-8.535156v-42.667969h477.867188zm0 0"/><path d="m238.933594 375.464844h34.132812c4.714844 0 8.535156-3.820313 8.535156-8.53125 0-4.714844-3.820312-8.535156-8.535156-8.535156h-34.132812c-4.714844 0-8.535156 3.820312-8.535156 8.535156 0 4.710937 3.820312 8.53125 8.535156 8.53125zm0 0"/><path d="m452.265625 426.667969c-32.972656.035156-59.695313 26.757812-59.730469 59.730469v8.535156c0 9.425781 7.640625 17.066406 17.066406 17.066406h85.332032c9.425781 0 17.066406-7.640625 17.066406-17.066406v-8.535156c-.039062-32.972657-26.757812-59.695313-59.734375-59.730469zm42.667969 68.265625h-85.332032v-8.535156c.023438-20.265626 14.28125-37.730469 34.132813-41.8125v16.214843c0 4.710938 3.820313 8.53125 8.53125 8.53125 4.714844 0 8.535156-3.820312 8.535156-8.53125v-16.214843c19.851563 4.082031 34.105469 21.546874 34.132813 41.8125zm0 0"/><path d="m231.3125 219.554688c5.832031 3.226562 12.949219 3.039062 18.601562-.488282l50.101563-31.332031c5.363281-3.351563 8.621094-9.226563 8.621094-15.546875 0-6.324219-3.257813-12.199219-8.621094-15.550781l-50.101563-31.316407c-5.652343-3.53125-12.777343-3.714843-18.605468-.480468-5.832032 3.234375-9.445313 9.378906-9.441406 16.046875v62.632812c0 6.664063 3.617187 12.804688 9.445312 16.035157zm7.621094-78.667969c-.019532-.464844.234375-.894531.648437-1.101563.191407-.113281.410157-.175781.632813-.179687.234375.003906.464844.078125.65625.214843l50.105468 31.316407c.382813.214843.613282.628906.589844 1.066406.015625.4375-.210937.851563-.589844 1.074219l-50.105468 31.316406c-.394532.246094-.894532.246094-1.289063 0-.410156-.199219-.660156-.621094-.648437-1.074219zm0 0"/><path d="m452.265625 34.132812c-4.710937 0-8.53125 3.820313-8.53125 8.535157v17.066406h-34.132813v-17.066406c0-4.714844-3.820312-8.535157-8.535156-8.535157-4.710937 0-8.53125 3.820313-8.53125 8.535157v17.066406h-273.070312v-17.066406c0-4.714844-3.820313-8.535157-8.53125-8.535157-4.714844 0-8.535156 3.820313-8.535156 8.535157v17.066406h-34.132813v-17.066406c0-4.714844-3.820313-8.535157-8.53125-8.535157-4.714844 0-8.535156 3.820313-8.535156 8.535157v256c0 4.710937 3.820312 8.53125 8.535156 8.53125 4.710937 0 8.53125-3.820313 8.53125-8.53125v-17.066407h34.132813v17.066407c0 4.710937 3.820312 8.53125 8.535156 8.53125 4.710937 0 8.53125-3.820313 8.53125-8.53125v-17.066407h273.070312v17.066407c0 4.710937 3.820313 8.53125 8.53125 8.53125 4.714844 0 8.535156-3.820313 8.535156-8.53125v-17.066407h34.132813v17.066407c0 4.710937 3.820313 8.53125 8.53125 8.53125 4.714844 0 8.535156-3.820313 8.535156-8.53125v-256c0-4.714844-3.820312-8.535157-8.535156-8.535157zm-42.664063 93.867188h34.132813v34.132812h-34.132813zm0 51.199219h34.132813v34.132812h-34.132813zm34.132813-68.265625h-34.132813v-34.132813h34.132813zm-341.335937 51.199218h-34.132813v-34.132812h34.132813zm-34.132813 17.066407h34.132813v34.132812h-34.132813zm34.132813-102.398438v34.132813h-34.132813v-34.132813zm-34.132813 153.597657h34.132813v34.136718h-34.132813zm51.199219 34.136718v-187.734375h77.65625c-32.394532 20.207031-52.078125 55.6875-52.078125 93.867188 0 38.175781 19.683593 73.65625 52.078125 93.867187zm136.535156-187.734375c51.839844 0 93.867188 42.023438 93.867188 93.867188 0 51.839843-42.027344 93.867187-93.867188 93.867187s-93.867188-42.027344-93.867188-93.867187c.0625-51.816407 42.050782-93.808594 93.867188-93.867188zm110.933594 93.867188c-.035156-38.164063-19.699219-73.628907-52.054688-93.867188h77.65625v187.734375h-77.65625c32.355469-20.242187 52.019532-55.703125 52.054688-93.867187zm42.667968 93.867187v-34.136718h34.132813v34.136718zm0 0"/></svg>