<svg height="480pt" viewBox="0 -24 480 480" width="480pt" xmlns="http://www.w3.org/2000/svg"><path d="m240 8c-128.128906 0-232 82.398438-232 184 0 61.320312 37.855469 115.59375 96 149.03125v66.96875c0 8.835938 7.164062 16 16 16h240c8.835938 0 16-7.164062 16-16v-66.96875c58.144531-33.4375 96-87.710938 96-149.03125 0-101.601562-103.871094-184-232-184zm-104 208c-30.929688 0-56-25.070312-56-56s25.070312-56 56-56 56 25.070312 56 56-25.070312 56-56 56zm131.054688 72h-54.109376c-2.773437 0-5.347656-1.4375-6.804687-3.796875-1.453125-2.355469-1.585937-5.300781-.347656-7.777344l27.054687-54.113281c1.355469-2.707031 4.125-4.414062 7.152344-4.414062s5.796875 1.707031 7.152344 4.414062l27.054687 54.113281c1.238281 2.476563 1.105469 5.421875-.347656 7.777344-1.457031 2.359375-4.03125 3.796875-6.804687 3.796875zm76.945312-72c-30.929688 0-56-25.070312-56-56s25.070312-56 56-56 56 25.070312 56 56-25.070312 56-56 56zm0 0" fill="#8b5e3c"/><path d="m247.152344 222.3125c-1.355469-2.707031-4.125-4.414062-7.152344-4.414062s-5.796875 1.707031-7.152344 4.414062l-27.054687 54.113281c-1.238281 2.476563-1.105469 5.421875.347656 7.777344 1.457031 2.359375 4.03125 3.796875 6.804687 3.796875h54.109376c2.773437 0 5.347656-1.4375 6.804687-3.796875 1.453125-2.355469 1.585937-5.300781.347656-7.777344zm0 0" fill="#57565c"/><path d="m400 160c0 30.929688-25.070312 56-56 56s-56-25.070312-56-56 25.070312-56 56-56 56 25.070312 56 56zm0 0" fill="#57565c"/><path d="m192 160c0 30.929688-25.070312 56-56 56s-56-25.070312-56-56 25.070312-56 56-56 56 25.070312 56 56zm0 0" fill="#57565c"/><g fill="#2d2d30"><path d="m254.3125 218.734375c-2.710938-5.421875-8.25-8.84375-14.3125-8.84375s-11.601562 3.421875-14.3125 8.84375l-27.054688 54.066406c-2.503906 4.964844-2.246093 10.867188.671876 15.601563 2.917968 4.730468 8.082031 7.605468 13.640624 7.597656h54.109376c5.558593.007812 10.722656-2.867188 13.640624-7.597656 2.917969-4.734375 3.175782-10.636719.671876-15.601563zm-41.367188 61.265625 27.054688-54.113281 27.054688 54.113281zm0 0"/><path d="m240 0c-132.335938 0-240 86.136719-240 192 0 60.320312 35.792969 117.441406 96 153.601562v62.398438c0 13.253906 10.746094 24 24 24h240c13.253906 0 24-10.746094 24-24v-62.398438c60.207031-36.160156 96-93.28125 96-153.601562 0-105.863281-107.664062-192-240-192zm132 334.097656c-2.476562 1.429688-4.003906 4.074219-4 6.933594v66.96875c0 4.417969-3.582031 8-8 8h-40v-56c0-4.417969-3.582031-8-8-8s-8 3.582031-8 8v56h-56v-56c0-4.417969-3.582031-8-8-8s-8 3.582031-8 8v56h-56v-56c0-4.417969-3.582031-8-8-8s-8 3.582031-8 8v56h-40c-4.417969 0-8-3.582031-8-8v-66.96875c.003906-2.859375-1.523438-5.503906-4-6.933594-57.601562-33.121094-92-86.242187-92-142.097656 0-97.046875 100.488281-176 224-176s224 78.953125 224 176c0 55.855469-34.398438 108.976562-92 142.097656zm0 0"/><path d="m344 96c-35.347656 0-64 28.652344-64 64s28.652344 64 64 64 64-28.652344 64-64c-.039062-35.328125-28.671875-63.960938-64-64zm0 112c-26.507812 0-48-21.492188-48-48s21.492188-48 48-48 48 21.492188 48 48c-.027344 26.5-21.5 47.972656-48 48zm0 0"/><path d="m136 96c-35.347656 0-64 28.652344-64 64s28.652344 64 64 64 64-28.652344 64-64c-.039062-35.328125-28.671875-63.960938-64-64zm0 112c-26.507812 0-48-21.492188-48-48s21.492188-48 48-48 48 21.492188 48 48c-.027344 26.5-21.5 47.972656-48 48zm0 0"/></g></svg>