<svg height="512pt" viewBox="-111 0 512 512.01448" width="512pt" xmlns="http://www.w3.org/2000/svg"><path d="m230.40625 59.746094c-.003906-5.992188-1.59375-11.882813-4.605469-17.066406" fill="#fb7b76"/><path d="m264.539062 81.082031c.003907 1.425781-.082031 2.851563-.253906 4.265625h-46.421875c-2.949219.027344-5.84375-.769531-8.363281-2.304687l-34.984375-20.992188c-2.519531-1.53125-5.417969-2.328125-8.363281-2.304687h-30.292969c-9.050781 0-16.386719-7.332032-16.386719-16.382813.007813-4.550781-1.914062-8.890625-5.289062-11.945312 5.898437-13.363281 18.867187-22.21875 33.460937-22.851563 14.59375-.636718 28.28125 7.0625 35.316407 19.863282 4.183593-1.886719 8.722656-2.847657 13.3125-2.816407 12.191406-.023437 23.460937 6.492188 29.527343 17.066407h.339844c10.1875-.011719 19.964844 4.027343 27.167969 11.234374 7.203125 7.203126 11.246094 16.980469 11.230468 27.167969zm0 0" fill="#c52828"/><path d="m114.175781 39.960938c-1.179687-.007813-2.339843-.261719-3.414062-.746094-4.308594-1.90625-6.25-6.945313-4.34375-11.253906 7.214843-16.328126 23.070312-27.148438 40.90625-27.9179692 17.832031-.7695308 34.558593 8.6445312 43.15625 24.2929692 1.542969 2.679687 1.515625 5.984374-.074219 8.636718-1.585938 2.65625-4.484375 4.242188-7.578125 4.148438-3.089844-.089844-5.890625-1.851563-7.316406-4.59375-5.476563-9.953125-16.125-15.941406-27.476563-15.441406-11.351562.496093-21.433594 7.390624-26.019531 17.789062-1.371094 3.101562-4.449219 5.097656-7.839844 5.085938zm0 0" fill="#df4d60"/><path d="m230.40625 68.28125c-4.710938 0-8.53125-3.820312-8.53125-8.535156-.039062-14.121094-11.476562-25.5625-25.601562-25.597656-3.359376-.03125-6.6875.664062-9.753907 2.039062-2.769531 1.269531-6.007812.96875-8.496093-.796875-2.488282-1.765625-3.84375-4.722656-3.558594-7.757813.285156-3.035156 2.167968-5.6875 4.9375-6.960937 5.296875-2.402344 11.054687-3.628906 16.871094-3.589844 23.546874.042969 42.625 19.121094 42.667968 42.664063 0 4.714844-3.820312 8.535156-8.535156 8.535156zm0 0" fill="#df4d60"/><path d="m264.292969 93.882812c-.363281 0-.730469-.023437-1.09375-.070312-2.242188-.285156-4.28125-1.453125-5.667969-3.246094-1.382812-1.789062-2-4.058594-1.710938-6.300781.128907-1.058594.191407-2.121094.1875-3.183594 0-16.496093-13.371093-29.867187-29.867187-29.867187-4.75.015625-8.628906-3.785156-8.710937-8.535156-.039063-2.246094.828124-4.410157 2.398437-6.015626 1.574219-1.601562 3.726563-2.507812 5.972656-2.515624 12.496094-.058594 24.5 4.859374 33.367188 13.664062 8.871093 8.800781 13.871093 20.773438 13.90625 33.269531 0 1.789063-.105469 3.574219-.324219 5.347657-.546875 4.257812-4.164062 7.449218-8.457031 7.453124zm0 0" fill="#df4d60"/><path d="m281.605469 102.414062v221.867188c0 18.851562-15.28125 34.132812-34.132813 34.132812h-204.796875c-18.851562 0-34.136719-15.28125-34.136719-34.132812v-281.601562c.046876-18.832032 15.304688-34.085938 34.136719-34.132813h22.355469c7.71875.03125 15.292969 2.121094 21.929688 6.058594l24.578124 14.765625c.953126.585937 1.839844 1.269531 2.644532 2.046875 3.375 3.054687 5.296875 7.394531 5.289062 11.945312 0 4.347657 1.726563 8.511719 4.800782 11.585938 3.070312 3.074219 7.238281 4.796875 11.585937 4.796875h30.292969c2.945312-.023438 5.84375.773437 8.363281 2.304687l34.984375 20.992188c2.519531 1.535156 5.414062 2.332031 8.363281 2.304687h46.675781c9.414063.027344 17.039063 7.652344 17.066407 17.066406zm0 0" fill="#558b30"/><path d="m256.007812 93.882812v230.398438c0 14.136719-11.460937 25.601562-25.601562 25.601562h-187.730469c-14.140625 0-25.601562-11.464843-25.601562-25.601562v-302.59375c5.183593-3.011719 11.070312-4.601562 17.066406-4.605469h22.355469c7.722656.027344 15.292968 2.121094 21.933594 6.058594l24.574218 14.761719c.953125.585937 1.839844 1.273437 2.644532 2.046875 3.375 3.054687 5.300781 7.394531 5.292968 11.949219 0 9.046874 7.335938 16.382812 16.382813 16.382812h30.292969c2.949218-.027344 5.84375.769531 8.363281 2.304688l34.988281 20.992187c2.515625 1.53125 5.414062 2.328125 8.359375 2.304687zm0 0" fill="#8bc34a"/><path d="m153.605469 247.480469h-17.066407c-4.710937 0-8.53125-3.820313-8.53125-8.53125 0-4.714844 3.820313-8.535157 8.53125-8.535157h17.066407c4.714843 0 8.535156 3.820313 8.535156 8.535157 0 4.710937-3.820313 8.53125-8.535156 8.53125zm0 0" fill="#4c8056"/><path d="m119.472656 192.015625c0 21.207031-17.191406 38.398437-38.398437 38.398437s-38.398438-17.191406-38.398438-38.398437 17.191407-38.402344 38.398438-38.402344 38.398437 17.195313 38.398437 38.402344zm0 0" fill="#37474f"/><path d="m196.273438 310.285156c0 20.550782-22.921876 12.398438-51.199219 12.398438-28.28125 0-51.199219 8.152344-51.199219-12.398438 0-20.546875 22.917969-37.203125 51.199219-37.203125 28.277343 0 51.199219 16.65625 51.199219 37.203125zm0 0" fill="#2c3e50"/><path d="m8.539062 238.949219c11.382813 12.382812 24.410157 23.148437 38.71875 32 19.359376 10.664062-38.71875 10.664062-38.71875 53.332031zm0 0" fill="#558b30"/><path d="m281.605469 238.949219c-11.382813 12.382812-24.40625 23.148437-38.714844 32-19.359375 10.664062 38.714844 10.664062 38.714844 53.332031zm0 0" fill="#558b30"/><path d="m247.472656 85.347656v119.46875c0 9.421875-7.640625 17.066406-17.066406 17.066406s-17.066406-7.644531-17.066406-17.066406v-51.203125c0-9.425781-7.640625-17.066406-17.066406-17.066406-9.425782 0-17.066407 7.640625-17.066407 17.066406s-7.640625 17.066407-17.066406 17.066407-17.066406-7.640626-17.066406-17.066407v-93.867187h21.078125c2.945312-.023438 5.84375.773437 8.363281 2.304687l34.984375 20.992188c2.519531 1.535156 5.414062 2.332031 8.363281 2.304687zm0 0" fill="#f44335"/><path d="m42.675781 349.882812h42.664063v59.730469h-42.664063zm0 0" fill="#ffe0b2"/><path d="m204.808594 349.882812h42.664062v59.730469h-42.664062zm0 0" fill="#ffe0b2"/><path d="m128.007812 349.882812h34.132813v42.664063h-34.132813zm0 0" fill="#ffe0b2"/><path d="m85.339844 349.882812h42.667968v59.730469h-42.667968zm0 0" fill="#4e342e"/><path d="m162.140625 349.882812h42.667969v59.730469h-42.667969zm0 0" fill="#4e342e"/><path d="m204.808594 392.546875v76.800781l-25.601563-17.066406-17.066406 17.066406v-25.601562c-.027344-9.414063-7.652344-17.035156-17.066406-17.066406-9.398438.070312-16.996094 7.671874-17.066407 17.066406v25.601562l-25.601562-17.066406-17.066406 17.066406v-76.800781zm0 0" fill="#4e342e"/><g fill="#8bc34a"><path d="m102.40625 452.28125 25.601562 17.066406v17.066406c-.027343 9.414063-7.652343 17.039063-17.066406 17.066407h-8.535156c-9.414062-.027344-17.039062-7.652344-17.066406-17.066407v-17.066406zm0 0"/><path d="m204.808594 469.347656v17.066406c-.03125 9.414063-7.652344 17.039063-17.066406 17.066407h-8.535157c-9.414062-.027344-17.039062-7.652344-17.066406-17.066407v-17.066406l17.066406-17.066406zm0 0"/><path d="m85.339844 409.613281v12.800781c0 11.78125-9.550782 21.332032-21.332032 21.332032s-21.332031-9.550782-21.332031-21.332032v-12.800781zm0 0"/><path d="m247.472656 409.613281v12.800781c0 11.78125-9.550781 21.332032-21.332031 21.332032s-21.332031-9.550782-21.332031-21.332032v-12.800781zm0 0"/></g><path d="m153.605469 486.414062c0 14.140626 11.464843 25.601563 25.601562 25.601563h8.535157c14.136718 0 25.597656-11.460937 25.597656-25.601563v-37.128906c3.988281 1.949219 8.363281 2.972656 12.800781 2.996094 7.921875 0 15.519531-3.148438 21.117187-8.746094 5.601563-5.601562 8.75-13.199218 8.75-21.121094v-56.320312c19.851563-4.082031 34.105469-21.546875 34.132813-41.8125v-221.867188c-.046875-10.859374-6.941406-20.507812-17.203125-24.070312-1.390625-23.105469-19.398438-41.753906-42.4375-43.957031-8.027344-10.859375-20.722656-17.277344-34.226562-17.304688-3.304688.023438-6.59375.445313-9.796876 1.253907-8.984374-11.734376-22.992187-18.523438-37.769531-18.3164068-14.777343.2070308-28.585937 7.3906248-37.238281 19.3749998l-20.15625-12.085937c-7.949219-4.769532-17.050781-7.292969-26.324219-7.292969h-22.3125c-23.554687.0273438-42.6406248 19.113281-42.6679685 42.664063v281.601562c.0234375 20.265625 14.2812495 37.730469 34.1328125 41.8125v56.320312c0 16.496094 13.371094 29.867188 29.867187 29.867188 4.4375-.023438 8.8125-1.046875 12.800782-2.996094v37.128906c0 14.140626 11.460937 25.601563 25.597656 25.601563h8.535156c14.136719 0 25.597656-11.460937 25.597656-25.601563v-42.667968c0-4.710938 3.820313-8.53125 8.535157-8.53125 4.710937 0 8.53125 3.820312 8.53125 8.53125zm34.136719 8.535157h-8.535157c-4.710937 0-8.53125-3.820313-8.53125-8.535157v-13.535156l9.613281-9.617187 15.984376 10.652343v12.5c0 4.714844-3.820313 8.535157-8.53125 8.535157zm-93.867188-110.933594v-17.066406h25.597656v17.066406zm-17.066406 17.066406h-25.601563v-34.132812h25.601563zm59.730468-34.132812h17.066407v17.066406h-17.066407zm34.136719 0h25.597657v17.066406h-25.597657zm68.265625 0v34.132812h-25.601562v-34.132812zm-12.800781 68.265625c-7.070313 0-12.800781-5.730469-12.800781-12.800782v-4.265624h25.601562v4.265624c0 7.070313-5.730468 12.800782-12.800781 12.800782zm46.933594-147.574219c-6.179688-5.066406-12.949219-9.363281-20.164063-12.800781 7.109375-4.683594 13.851563-9.910156 20.164063-15.625zm-51.199219-134.027344c0-14.136719-11.460938-25.597656-25.601562-25.597656-14.136719 0-25.597657 11.460937-25.597657 25.597656 0 4.714844-3.824219 8.535157-8.535156 8.535157s-8.535156-3.820313-8.535156-8.535157v-85.332031h12.546875c1.410156 0 2.796875.382812 4.007812 1.109375l34.902344 20.941406c3.867188 2.320313 8.292969 3.546875 12.800781 3.550781h21.078125v110.933594c0 4.710938-3.820312 8.53125-8.535156 8.53125-4.710938 0-8.53125-3.820312-8.53125-8.53125zm-72.535156-136.53125c10.882812-.015625 20.902344 5.90625 26.136718 15.445313.257813.359375.542969.699218.855469 1.015625.332031.488281.710938.941406 1.132813 1.355469.425781.324218.875.609374 1.351562.855468.464844.300782.964844.558594 1.484375.765625.507813.128907 1.027344.214844 1.550781.257813.5625.101562 1.136719.15625 1.707032.152344.5625-.078126 1.117187-.207032 1.65625-.390626.453125-.070312.902344-.175781 1.339844-.316406 3.050781-1.382812 6.367187-2.089844 9.71875-2.074218 14.125.035156 25.5625 11.476562 25.601562 25.597656 0 4.714844 3.820312 8.535156 8.53125 8.535156 4.714844 0 8.535156-3.820312 8.535156-8.535156-.003906-1.925782-.140625-3.851563-.410156-5.757813 9.195312 4.21875 15.621094 12.8125 17.066406 22.828125h-37.734375c-1.414062 0-2.800781-.382812-4.011719-1.109375l-34.898437-20.941406c-3.867187-2.324219-8.292969-3.550781-12.800781-3.550781h-30.335938c-4.316406-.003906-7.808594-3.503906-7.808594-7.816406-.03125-4.519532-1.292968-8.945313-3.652343-12.800782 5.523437-8.421875 14.914062-13.503906 24.984375-13.515625zm-132.265625 242.132813c6.308593 5.730468 13.050781 10.96875 20.164062 15.667968-7.210937 3.421876-13.980469 7.707032-20.164062 12.757813zm0 65.066406c0-19.960938 16.289062-28.261719 28.160156-34.328125 7.679687-3.925781 14.359375-7.316406 14.507813-14.765625-.265626-5.199219-3.53125-9.773438-8.363282-11.714844-12.628906-7.742187-24.167968-17.136718-34.304687-27.9375v-192.855468c0-14.136719 11.460937-25.597657 25.601562-25.597657h22.3125c6.1875 0 12.257813 1.679688 17.5625 4.863281l24.601563 14.761719c2.339844 1.417969 3.773437 3.953125 3.789062 6.691407.011719 13.734374 11.140625 24.863281 24.875 24.882812h.722656v85.332031c0 14.140625 11.464844 25.601563 25.601563 25.601563s25.601563-11.460938 25.601563-25.601563c0-4.710937 3.820312-8.53125 8.53125-8.53125 4.714843 0 8.535156 3.820313 8.535156 8.53125v51.203125c0 14.136719 11.460937 25.597656 25.597656 25.597656 14.140625 0 25.601562-11.460937 25.601562-25.597656v-110.933594h8.53125c4.714844 0 8.535157 3.820313 8.535157 8.53125v133.121094c-10.140625 10.792969-21.675781 20.183594-34.304688 27.921875-4.839843 1.941407-8.105469 6.523438-8.363281 11.730469.121094 7.449219 6.777344 10.839844 14.507812 14.765625 11.871094 6.066406 28.160157 14.367187 28.160157 34.328125 0 14.136719-11.460938 25.601562-25.601563 25.601562h-204.796875c-14.140625 0-25.601562-11.464843-25.601562-25.601562zm46.933593 110.933594c-7.070312 0-12.800781-5.730469-12.800781-12.800782v-4.265624h25.601563v4.265624c0 7.070313-5.730469 12.800782-12.800782 12.800782zm46.933594 59.734375h-8.535156c-4.710938 0-8.53125-3.820313-8.53125-8.535157v-13.535156l9.617188-9.617187 15.980468 10.652343v12.5c0 4.714844-3.820312 8.535157-8.53125 8.535157zm34.132813-76.800781c-14.140625 0-25.601563 11.460937-25.601563 25.597656v9.660156l-12.328125-8.226562c-3.386719-2.253907-7.894531-1.808594-10.769531 1.070312l-2.5 2.5v-47.667969h102.398438v52.324219l-12.332032-8.226562c-3.382812-2.253907-7.890625-1.808594-10.765625 1.070312l-2.5 2.5v-5.003906c0-14.136719-11.464843-25.597656-25.601562-25.597656zm0 0"/><path d="m136.539062 247.480469h17.066407c4.714843 0 8.535156-3.820313 8.535156-8.53125 0-4.714844-3.820313-8.535157-8.535156-8.535157h-17.066407c-4.710937 0-8.53125 3.820313-8.53125 8.535157 0 4.710937 3.820313 8.53125 8.53125 8.53125zm0 0"/><path d="m128.007812 192.015625c0-25.921875-21.011718-46.933594-46.933593-46.933594s-46.933594 21.011719-46.933594 46.933594c0 25.917969 21.011719 46.933594 46.933594 46.933594 25.910156-.03125 46.90625-21.027344 46.933593-46.933594zm-76.800781 0c0-16.496094 13.371094-29.867187 29.867188-29.867187 16.496093 0 29.867187 13.371093 29.867187 29.867187 0 16.492187-13.371094 29.867187-29.867187 29.867187-16.496094 0-29.867188-13.375-29.867188-29.867187zm0 0"/><path d="m85.339844 310.285156c-.355469 6.132813 1.933594 12.121094 6.28125 16.453125 7.859375 7.3125 19.78125 6.453125 34.882812 5.359375 12.367188-.863281 24.773438-.863281 37.136719 0 5.171875.375 9.984375.726563 14.371094.726563 7.359375.699219 14.699219-1.480469 20.480469-6.085938 4.363281-4.328125 6.660156-10.316406 6.316406-16.453125 0-25.257812-26.804688-45.738281-59.734375-45.738281-32.929688 0-59.734375 20.480469-59.734375 45.738281zm102.402344 0c.148437 1.375-.152344 2.761719-.855469 3.953125-2.414063 2.25-13.285157 1.46875-22.023438.851563-5.972656-.425782-12.707031-.921875-19.796875-.921875-7.09375 0-13.84375.496093-19.796875.921875-8.75.632812-19.628906 1.417968-22.027343-.851563-.703126-1.191406-1-2.578125-.851563-3.953125.015625-15.539062 19.558594-28.671875 42.683594-28.671875s42.667969 13.132813 42.667969 28.671875zm0 0"/></svg>