<svg height="504pt" viewBox="-34 0 504 504.21794" width="504pt" xmlns="http://www.w3.org/2000/svg"><path d="m325.851562 327.359375c-3.570312 15.527344-5.796874 31.332031-6.65625 47.238281-.183593 15.546875 1.6875 31.050782 5.554688 46.105469 3.976562 12.996094 3.59375 26.9375-1.089844 39.695313-5.128906 10.191406-13.070312 18.703124-22.882812 24.523437-1.320313.835937-2.660156 1.617187-4.019532 2.351563-13.6875 7.082031-29.179687 9.910156-44.484374 8.117187-6.304688-.628906-12.539063-1.835937-18.625-3.601563-5.203126-1.507812-10.316407-3.320312-15.308594-5.421874-4.996094 2.101562-10.113282 3.914062-15.320313 5.421874-6.085937 1.765626-12.320312 2.972657-18.625 3.601563-15.304687 1.792969-30.796875-1.035156-44.484375-8.117187-1.359375-.738282-2.699218-1.523438-4.019531-2.351563-9.8125-5.820313-17.753906-14.332031-22.882813-24.523437-4.683593-12.757813-5.066406-26.699219-1.089843-39.695313 3.871093-15.054687 5.738281-30.558594 5.554687-46.105469-.855468-15.90625-3.078125-31.710937-6.644531-47.238281zm0 0" fill="#00695c"/><path d="m352.632812 100.738281c-.078124 12.683594-9.582031 23.328125-22.175781 24.839844s-24.347656-6.578125-27.429687-18.878906c-4.257813 1.625-8.785156 2.453125-13.34375 2.433593-17.058594.050782-32.015625-11.390624-36.429688-27.867187-4.421875 1.796875-9.15625 2.710937-13.933594 2.6875-10.019531.011719-19.632812-3.964844-26.722656-11.050781-7.085937-7.085938-11.058594-16.699219-11.046875-26.722656-.027343-3.667969.507813-7.320313 1.59375-10.828126 4.855469-16.128906 19.804688-27.097656 36.652344-26.882812 16.84375.210938 31.511719 11.558594 35.953125 27.808594 4.421875-1.800782 9.15625-2.710938 13.933594-2.6875 10.019531-.011719 19.636718 3.960937 26.722656 11.046875 7.085938 7.089843 11.058594 16.703125 11.046875 26.722656.003906 1.40625-.082031 2.804687-.25 4.199219h.25c13.90625 0 25.179687 11.273437 25.179687 25.179687zm0 0" fill="#e91e63"/><g fill="#ff5364"><path d="m239.320312 92.34375c-25.480468-.03125-46.128906-20.679688-46.164062-46.164062-.027344-4.535157.644531-9.046876 1.992188-13.378907 5.980468-19.691406 24.277343-33.042969 44.855468-32.738281 20.578125.308594 38.464844 14.195312 43.863282 34.058594.769531 2.898437-.066407 5.988281-2.191407 8.105468-2.125 2.117188-5.21875 2.941407-8.117187 2.15625-2.894532-.78125-5.15625-3.050781-5.925782-5.949218-3.476562-12.609375-14.871093-21.40625-27.953124-21.566406-13.082032-.164063-24.695313 8.339843-28.484376 20.863281-.855468 2.734375-1.277343 5.585937-1.25 8.449219 0 16.226562 13.152344 29.378906 29.375 29.378906 3.679688.027344 7.328126-.671875 10.738282-2.058594 2.777344-1.183594 5.980468-.78125 8.382812 1.054688 2.402344 1.832031 3.632813 4.816406 3.21875 7.8125-.410156 2.992187-2.398437 5.535156-5.207031 6.652343-5.4375 2.222657-11.257813 3.355469-17.132813 3.324219zm0 0"/><path d="m325.289062 92.34375c-2.71875-.003906-5.269531-1.324219-6.839843-3.542969-1.570313-2.21875-1.96875-5.0625-1.066407-7.628906.734376-2.121094 1.234376-4.316406 1.484376-6.546875.132812-1.082031.199218-2.171875.191406-3.265625 0-16.222656-13.152344-29.375-29.375-29.375-3.679688-.027344-7.328125.671875-10.734375 2.054687-2.808594 1.371094-6.144531 1.066407-8.65625-.785156-2.515625-1.851562-3.792969-4.945312-3.320313-8.035156.476563-3.085938 2.625-5.652344 5.578125-6.664062 5.433594-2.234376 11.257813-3.375 17.132813-3.359376 25.480468.035157 46.128906 20.683594 46.164062 46.164063 0 1.761719-.105468 3.519531-.320312 5.265625-.394532 3.433594-1.171875 6.808594-2.316406 10.070312-1.167969 3.378907-4.347657 5.644532-7.921876 5.648438zm0 0"/><path d="m327.453125 134.3125c-15.53125.082031-29.054687-10.582031-32.601563-25.703125-.714843-2.929687.195313-6.019531 2.390626-8.089844 2.191406-2.074219 5.328124-2.808593 8.214843-1.929687 2.882813.878906 5.074219 3.242187 5.738281 6.183594 1.785157 7.523437 8.527344 12.8125 16.257813 12.75 9.269531 0 16.785156-7.515626 16.785156-16.785157s-7.515625-16.785156-16.785156-16.785156c-4.664063.011719-8.46875-3.730469-8.527344-8.394531-.03125-2.214844.828125-4.347656 2.382813-5.925782 1.554687-1.578124 3.679687-2.464843 5.894531-2.46875h.25c18.542969 0 33.574219 15.03125 33.574219 33.574219s-15.03125 33.574219-33.574219 33.574219zm0 0"/></g><path d="m369.421875 293.621094c1.425781.082031 2.769531.167968 4.195313.167968 30.132812 0 54.558593-30.050781 54.558593-67.148437 0-37.101563-24.425781-67.148437-54.558593-67.148437-4.316407.019531-8.613282.640624-12.757813 1.847656h-285.042969c-4.144531-1.207032-8.4375-1.828125-12.757812-1.847656-30.132813 0-54.554688 30.046874-54.554688 67.148437 0 37.097656 24.421875 67.148437 54.554688 67.148437 1.429687 0 2.769531-.085937 4.199218-.167968zm0 0" fill="#00695c"/><path d="m285.484375 339.523438c10.960937-2.824219 22.261719-4.089844 33.574219-3.769532 50.363281 0 50.363281-33.574218 50.363281-33.574218v-16.785157c.03125-20.453125-6.765625-40.332031-19.304687-56.488281 7.265624-19.523438 10.960937-40.191406 10.910156-61.019531 0-9.925781-.816406-19.835938-2.433594-29.628907-1.417969-8.289062-7-15.265624-14.773438-18.464843-4.519531 3.980469-10.34375 6.164062-16.367187 6.125-11.621094.058593-21.75-7.910157-24.425781-19.21875-4.257813 1.625-8.785156 2.453125-13.34375 2.433593-17.058594.050782-32.015625-11.390624-36.429688-27.867187-4.421875 1.796875-9.15625 2.710937-13.933594 2.6875-10.019531.011719-19.632812-3.964844-26.722656-11.050781-7.085937-7.085938-11.058594-16.699219-11.046875-26.722656-.019531-2.570313.261719-5.132813.839844-7.636719-.730469-.398438-1.429687-.847657-2.097656-1.34375-8.175781-5.710938-13.613281-14.554688-15.023438-24.425781-62.867187 16.621093-109.621093 79.824218-109.621093 155.113281-.046876 20.828125 3.648437 41.496093 10.914062 61.019531-12.542969 16.15625-19.335938 36.035156-19.304688 56.488281v16.785157s0 33.574218 50.359376 33.574218c11.3125-.320312 22.613281.945313 33.574218 3.769532zm0 0" fill="#00695c"/><path d="m269.628906 339.523438c9.691406-2.816407 19.765625-4.085938 29.847656-3.769532 44.761719 0 44.761719-33.574218 44.761719-33.574218v-16.785157c.132813-20.132812-5.851562-39.828125-17.15625-56.488281 6.480469-19.691406 9.753907-40.292969 9.695313-61.019531 0-9.917969-.722656-19.820313-2.164063-29.628907-1.019531-7.960937-5.945312-14.886718-13.128906-18.464843-3.832031 3.90625-9.070313 6.113281-14.542969 6.125-10.890625-.421875-19.972656-8.460938-21.714844-19.21875-3.746093 1.617187-7.78125 2.445312-11.859374 2.433593-15.957032-.632812-29.371094-12.183593-32.367188-27.867187-3.882812 1.789063-8.113281 2.703125-12.386719 2.6875-19.679687-1.203125-34.6875-18.085937-33.574219-37.773437-.019531-2.5625.230469-5.125.746094-7.636719-.652344-.402344-1.277344-.851563-1.863281-1.34375-7.453125-6.097657-12.242187-14.859375-13.355469-24.425781-55.898437 16.621093-97.453125 79.824218-97.453125 155.113281-.0625 20.726562 3.210938 41.328125 9.691407 61.019531-11.300782 16.660156-17.285157 36.355469-17.15625 56.488281v16.785157s0 33.574218 44.765624 33.574218c10.082032-.316406 20.15625.953125 29.84375 3.769532zm0 0" fill="#009688"/><path d="m208.675781 265.25-13.898437 21.277344c-1.984375 3.320312-1.953125 7.46875.078125 10.757812 2.03125 3.292969 5.726562 5.179688 9.582031 4.894532h27.800781c3.863281.289062 7.5625-1.597657 9.597657-4.894532 2.03125-3.296875 2.054687-7.453125.0625-10.773437l-13.898438-21.261719c-2.210938-3.144531-5.816406-5.019531-9.660156-5.019531-3.847656 0-7.449219 1.875-9.664063 5.019531zm0 0" fill="#37474f"/><path d="m185.351562 176.699219c17.292969 13.460937 21.320313 37.957031 9.242188 56.242187-12.074219 18.285156-36.1875 24.203125-55.355469 13.585938-19.167969-10.617188-26.941406-34.195313-17.84375-54.132813" fill="#fff"/><path d="m319.058594 209.851562c0 23.179688-18.789063 41.96875-41.964844 41.96875-23.179688 0-41.96875-18.789062-41.96875-41.96875 0-23.175781 18.789062-41.964843 41.96875-41.964843 23.175781 0 41.964844 18.789062 41.964844 41.964843zm0 0" fill="#37474f"/><path d="m109.222656 201.460938c-4.632812 0-8.390625-3.757813-8.390625-8.394532 0-4.636718 3.757813-8.394531 8.390625-8.394531.519532 0 51.898438-.34375 87.738282-23.8125 2.507812-1.648437 5.707031-1.832031 8.390624-.484375 2.683594 1.347656 4.445313 4.027344 4.617188 7.027344.171875 2.996094-1.265625 5.859375-3.777344 7.507812-40.136718 26.246094-94.667968 26.550782-96.96875 26.550782zm0 0" fill="#527f72"/><path d="m300.921875 335.753906c-3.03125 14.796875-4.914063 29.804688-5.640625 44.890625-.152344 14.734375 1.425781 29.4375 4.707031 43.804688 3.363281 12.394531 3.042969 25.5-.921875 37.71875-4.136718 9.429687-10.847656 17.507812-19.363281 23.300781-1.121094.789062-2.253906 1.53125-3.398437 2.222656-11.339844 6.6875-24.582032 9.402344-37.636719 7.714844-5.355469-.601562-10.632813-1.746094-15.753907-3.417969-4.429687-1.441406-8.761718-3.160156-12.96875-5.152343-4.207031 1.988281-8.535156 3.710937-12.960937 5.152343-5.125 1.671875-10.40625 2.816407-15.761719 3.417969-13.054687 1.6875-26.296875-1.027344-37.636718-7.714844-1.152344-.691406-2.285157-1.433594-3.398438-2.222656-8.515625-5.792969-15.226562-13.871094-19.363281-23.300781-3.964844-12.21875-4.285157-25.324219-.925781-37.71875 3.285156-14.367188 4.863281-29.070313 4.710937-43.804688-.726563-15.085937-2.609375-30.09375-5.640625-44.890625zm0 0" fill="#009688"/><path d="m218.339844 344.148438c27.8125 0 50.359375 22.546874 50.359375 50.359374v8.394532c0 13.90625-11.273438 25.179687-25.179688 25.179687h-50.363281c-13.90625 0-25.179688-11.273437-25.179688-25.179687v-8.394532c0-27.8125 22.546876-50.359374 50.363282-50.359374zm0 0" fill="#37474f"/><path d="m201.660156 260.648438-13.90625 21.269531c-3.679687 5.53125-3.984375 12.644531-.789062 18.464843 3.507812 6.355469 10.21875 10.269532 17.472656 10.191407h27.800781c7.246094.085937 13.957031-3.8125 17.476563-10.148438 3.191406-5.820312 2.886718-12.9375-.789063-18.464843l-13.902343-21.269532c-3.746094-5.535156-9.996094-8.851562-16.679688-8.851562-6.6875 0-12.9375 3.316406-16.683594 8.851562zm14.058594 9.183593c.648438-.777343 1.609375-1.226562 2.625-1.226562 1.011719 0 1.972656.449219 2.621094 1.226562l13.910156 21.269531c.304688.382813.335938.917969.074219 1.335938-.585938.910156-1.628907 1.429688-2.710938 1.351562h-27.800781c-1.082031.078126-2.121094-.441406-2.710938-1.351562-.261718-.417969-.230468-.953125.078126-1.335938l13.90625-21.269531zm0 0"/><path d="m377.8125 302.179688v-.25c32.734375-2.609376 58.753906-35.335938 58.753906-75.289063 0-41.65625-28.234375-75.542969-62.949218-75.542969-1.679688 0-3.289063.203125-4.945313.363282-.425781-4.886719-1.003906-9.761719-1.804687-14.582032-1.246094-7.394531-5.019532-14.128906-10.675782-19.050781 5.503906-9.046875 6.359375-20.175781 2.3125-29.960937-4.050781-9.78125-12.523437-17.050782-22.808594-19.5625-.875-13.230469-7.394531-25.445313-17.898437-33.53125-10.503906-8.089844-23.980469-11.273438-36.996094-8.738282-7.511719-15.585937-23.136719-25.640625-40.4375-26.0234372-17.300781-.3828128-33.351562 8.9726562-41.546875 24.2109372-2.746094-3.765625-4.546875-8.132812-5.253906-12.742187-.367188-2.355469-1.714844-4.449219-3.714844-5.75s-4.457031-1.691407-6.761718-1.070313c-63.371094 16.785156-108.929688 75.898438-115.089844 146.800782-1.679688-.160157-3.359375-.363282-4.96875-.363282-34.683594 0-62.917969 33.886719-62.917969 75.542969 0 39.953125 26.019531 72.679687 58.753906 75.289063v.25c0 .378906.703125 34.925781 44.953125 40.976562 2.832032 12.433594 4.597656 25.089844 5.28125 37.820312.132813 14.042969-1.664062 28.039063-5.347656 41.589844-4.488281 14.199219-3.871094 29.519532 1.746094 43.3125 5.941406 11.25 15 20.546875 26.085937 26.78125 1.46875.839844 2.980469 1.679688 4.484375 2.519532 12.246094 6.109374 25.777344 9.207031 39.464844 9.03125 3.164062 0 6.367188-.144532 9.609375-.4375 6.78125-.644532 13.488281-1.875 20.054687-3.683594 4.304688-1.175782 8.703126-2.660156 13.109376-4.3125 4.40625 1.675781 8.804687 3.136718 13.109374 4.3125 6.570313 1.808594 13.28125 3.039062 20.0625 3.683594 3.238282.292968 6.441407.4375 9.601563.4375 13.707031.175781 27.253906-2.929688 39.515625-9.054688 1.503906-.78125 3.015625-1.613281 4.457031-2.519531 11.105469-6.230469 20.175781-15.53125 26.128907-26.785157 5.621093-13.789062 6.238281-29.109374 1.746093-43.308593-3.683593-13.550781-5.480469-27.546875-5.347656-41.589844.683594-12.734375 2.449219-25.386719 5.28125-37.820313 44.25-6.027343 44.953125-40.574218 44.953125-40.953124zm41.96875-75.539063c0 30.59375-18.464844 55.78125-41.96875 58.484375.011719-20.628906-6.371094-40.753906-18.269531-57.605469 6.5625-19.09375 9.902343-39.148437 9.878906-59.339843 27.402344-3.265626 50.359375 24.316406 50.359375 58.460937zm-180.460938-209.835937c13.246094-.03125 24.863282 8.839843 28.3125 21.628906.050782.183594.183594.320312.253907.503906.066406.183594 0 .359375.097656.535156.1875.324219.394531.632813.621094.925782.265625.5.578125.96875.941406 1.402343.363281.378907.765625.730469 1.191406 1.039063.410157.324218.851563.605468 1.316407.839844.492187.226562 1.003906.402343 1.53125.527343 1.023437.347657 2.125.421875 3.1875.21875.378906.003907.757812-.019531 1.132812-.066406.183594-.050781.320312-.183594.503906-.25.183594-.070313.359375 0 .539063-.101563 3.410156-1.375 7.058593-2.0625 10.734375-2.023437 16.222656 0 29.375 13.152344 29.375 29.375.003906 1.09375-.0625 2.183594-.199219 3.265625-.25 2.230469-.75 4.425781-1.488281 6.546875-1.046875 2.84375-.480469 6.03125 1.480468 8.339844 1.964844 2.308593 5.019532 3.378906 7.992188 2.804687 2.976562-.578125 5.410156-2.710937 6.367188-5.585937.175781-.511719.285156-1.042969.445312-1.554688 7.433594 3.007813 11.699219 10.851563 10.191406 18.722657-1.511718 7.875-8.378906 13.582031-16.394531 13.625-7.730469.0625-14.472656-5.226563-16.257813-12.75-.042968-.191407-.175781-.324219-.234374-.511719-.023438-.203125-.0625-.402344-.109376-.601563-.183593-.34375-.390624-.671875-.621093-.984375-.238281-.457031-.519531-.894531-.839844-1.300781-.386719-.441406-.820313-.835938-1.292969-1.183594-.367187-.3125-.761718-.59375-1.175781-.839844-.972656-.457031-2.007813-.773437-3.070313-.9375-.558593-.046874-1.125-.027343-1.679687.050782-.367187-.027344-.734375-.027344-1.097656 0-.195313.050781-.335938.183594-.53125.242187-.191407.058594-.394531 0-.585938.101563-3.273437 1.277344-6.757812 1.933594-10.273437 1.929687-13.246094.03125-24.859375-8.839843-28.3125-21.628906-.050782-.1875-.183594-.320313-.25-.503906-.070313-.183594 0-.363281-.101563-.539063-.191406-.324218-.398437-.640625-.628906-.9375-.261719-.488281-.574219-.949218-.925781-1.378906-.753906-.742188-1.597656-1.390625-2.515625-1.921875-.480469-.21875-.980469-.390625-1.496094-.519531-.511719-.15625-1.042969-.265625-1.578125-.320313-.539062-.023437-1.082031.007813-1.617188.09375-.386718-.007812-.777343.015625-1.160156.066407-.183594.050781-.320312.183593-.503906.253906-.183594.066406-.359375 0-.535156.097656-3.410156 1.386719-7.058594 2.085938-10.738282 2.058594-16.222656 0-29.375-13.152344-29.375-29.378906-.027343-2.863282.394532-5.714844 1.25-8.449219 3.753907-12.40625 15.167969-20.898438 28.125-20.925781zm-222.425781 209.835937c0-34.152344 22.933594-61.726563 50.363281-58.453125-.023437 20.1875 3.3125 40.242188 9.878907 59.332031-11.898438 16.851563-18.28125 36.976563-18.273438 57.605469-23.5-2.703125-41.96875-27.890625-41.96875-58.484375zm299.234375 231.808594c-4.566406 8.320312-11.382812 15.1875-19.671875 19.816406-1.160156.707031-2.34375 1.359375-3.535156 1.972656-12.367187 6.015625-26.195313 8.375-39.859375 6.808594-5.8125-.542969-11.5625-1.601563-17.191406-3.15625-4.8125-1.324219-9.550782-2.914063-14.191406-4.757813l-.203126-.078124c-1.046874-.195313-2.09375-.402344-3.136718-.613282-1.035156.199219-2.070313.386719-3.105469.574219l-.203125.074219c-4.640625 1.847656-9.378906 3.433594-14.191406 4.757812-5.625 1.554688-11.375 2.613282-17.183594 3.15625-13.667969 1.570313-27.496094-.792968-39.867188-6.804687-1.191406-.613281-2.375-1.269531-3.558593-1.984375-8.277344-4.628906-15.085938-11.492188-19.652344-19.808594-3.722656-10.355469-3.875-21.660156-.433594-32.113281 4.023438-15.003907 5.960938-30.492188 5.757813-46.027344-.613282-12.132813-2.171875-24.203125-4.667969-36.09375 9.3125-.066406 18.597656 1.0625 27.625 3.359375.765625.230469 1.5625.347656 2.363281.34375 4.171875-.007812 7.703125-3.070312 8.296875-7.199219.59375-4.125-1.929687-8.0625-5.929687-9.242187-11.742188-3.019532-23.851563-4.390625-35.972656-4.074219-40.046876 0-41.890626-22.609375-41.96875-25.269531v-16.695313c-.054688-18.597656 6.125-36.679687 17.550781-51.351562 1.785156-2.304688 2.242187-5.367188 1.21875-8.089844-6.921875-18.574219-10.4375-38.246094-10.375-58.066406 0-67.316407 38.785156-125.484375 95.316406-144.585938 2.785156 7.574219 7.664063 14.207031 14.066406 19.121094-.089843 1.25-.269531 2.515625-.269531 3.757813-.003906 13.804687 6.164062 26.886718 16.820312 35.660156 10.65625 8.773437 24.679688 12.320312 38.226563 9.664062 7.695313 15.910156 23.808594 26.015625 41.480469 26.019532 2.8125.003906 5.621094-.246094 8.394531-.746094 4.257813 7.992187 11.601563 13.890625 20.324219 16.320312 8.722656 2.433594 18.058594 1.1875 25.835937-3.445312 3.234375 2.421875 5.414063 5.992187 6.09375 9.972656 1.535157 9.34375 2.304688 18.792969 2.300781 28.261719.0625 19.820312-3.453124 39.492187-10.375 58.066406-1.023437 2.722656-.5625 5.785156 1.21875 8.089844 11.425782 14.671875 17.605469 32.753906 17.550782 51.351562v16.675781c-.066406 2.628907-1.839844 25.289063-41.96875 25.289063-12.113282-.300781-24.207032 1.085937-35.941406 4.113281-3.996094 1.183594-6.519532 5.121094-5.925782 9.246094s4.125 7.191406 8.292969 7.199219c.804687.003906 1.601563-.113281 2.367187-.34375 9.027344-2.296875 18.3125-3.425781 27.625-3.359375-2.496093 11.890625-4.054687 23.957031-4.667968 36.09375-.199219 15.53125 1.738281 31.019531 5.757812 46.027344 3.441406 10.453124 3.289063 21.757812-.4375 32.113281zm0 0"/><path d="m49.183594 205.027344c-2.722656-3.617188-7.828125-4.421875-11.53125-1.816406-3.703125 2.605468-4.671875 7.679687-2.191406 11.46875 3.109374 4.710937 3.109374 10.816406 0 15.527343-2.660157 3.789063-1.75 9.015625 2.03125 11.683594 3.792968 2.667969 9.023437 1.757813 11.691406-2.03125 7.285156-10.46875 7.285156-24.363281 0-34.832031zm0 0"/><path d="m394.601562 243.425781c3.128907-.007812 5.996094-1.753906 7.433594-4.53125 1.441406-2.777343 1.214844-6.128906-.585937-8.6875-3.132813-4.730469-3.113281-10.882812.050781-15.59375 2.425781-3.796875 1.421875-8.835937-2.277344-11.410156-3.695312-2.574219-8.769531-1.769531-11.488281 1.824219-7.285156 10.46875-7.285156 24.363281 0 34.832031 1.566406 2.242187 4.132813 3.574219 6.867187 3.566406zm0 0"/><path d="m209.945312 209.851562c.003907-11.171874-3.722656-22.03125-10.59375-30.84375 2.292969-1.300781 4.574219-2.644531 6.800782-4.097656 2.507812-1.648437 3.949218-4.511718 3.773437-7.507812-.171875-3-1.933593-5.679688-4.613281-7.027344-2.683594-1.347656-5.882812-1.164062-8.394531.484375-35.804688 23.46875-87.183594 23.8125-87.695313 23.8125-4.632812 0-8.390625 3.757813-8.390625 8.394531 0 4.636719 3.757813 8.394532 8.390625 8.394532h.773438c-.488282 2.769531-.746094 5.578124-.773438 8.390624 0 27.816407 22.546875 50.363282 50.363282 50.363282 27.8125 0 50.359374-22.546875 50.359374-50.363282zm-83.933593 0c.054687-3.25.578125-6.476562 1.558593-9.574218 19.207032-1.933594 38.050782-6.523438 55.992188-13.632813 10.503906 10.851563 12.445312 27.386719 4.742188 40.375-7.703126 12.988281-23.144532 19.214844-37.703126 15.203125-14.554687-4.011718-24.628906-17.269531-24.589843-32.371094zm0 0"/><path d="m327.453125 209.851562c0-27.8125-22.546875-50.359374-50.359375-50.359374-27.816406 0-50.363281 22.546874-50.363281 50.359374 0 27.816407 22.546875 50.363282 50.363281 50.363282 27.800781-.027344 50.332031-22.558594 50.359375-50.363282zm-50.359375 33.574219c-18.542969 0-33.574219-15.03125-33.574219-33.574219 0-18.539062 15.03125-33.574218 33.574219-33.574218s33.574219 15.035156 33.574219 33.574218c0 18.542969-15.03125 33.574219-33.574219 33.574219zm0 0"/><path d="m218.339844 335.753906c-32.433594.042969-58.714844 26.324219-58.753906 58.753906v8.394532c0 18.542968 15.03125 33.574218 33.570312 33.574218h50.363281c18.542969 0 33.574219-15.03125 33.574219-33.574218v-8.394532c-.042969-32.429687-26.324219-58.710937-58.753906-58.753906zm41.964844 67.148438c0 9.269531-7.515626 16.785156-16.785157 16.785156h-50.363281c-9.269531 0-16.785156-7.515625-16.785156-16.785156v-8.394532c0-23.175781 18.789062-41.964843 41.96875-41.964843 23.175781 0 41.964844 18.789062 41.964844 41.964843zm0 0"/></svg>