<svg height="480pt" viewBox="-40 0 480 480.00456" width="480pt" xmlns="http://www.w3.org/2000/svg"><path d="m392.003906 472.003906h-256c-70.695312 0-128-57.308594-128-128v-192c.007813-39.105468 15.917969-76.523437 44.070313-103.664062 28.152343-27.144532 66.128906-41.671875 105.207031-40.253906 78 2.796874 138.722656 69.277343 138.722656 147.359374v154.320313c.011719 42.429687 16.875 83.117187 46.878906 113.117187zm0 0" fill="#e6e7e8"/><path d="m168.003906 472.003906h-32c-70.695312 0-128-57.308594-128-128v-192c.007813-39.105468 15.917969-76.523437 44.070313-103.664062 28.152343-27.144532 66.128906-41.671875 105.207031-40.253906 3.601562.160156 7.121094.398437 10.5625.878906-72.796875 8.222656-127.816406 69.78125-127.839844 143.039062v192c0 70.691406 57.304688 128 128 128zm0 0" fill="#cacbcc"/><path d="m224.996094 164.292969c21.335937-5.71875 33.996094-27.65625 28.277344-48.992188l-77.269532 20.703125c5.714844 21.34375 27.648438 34.007813 48.992188 28.289063zm0 0" fill="#2d2d30"/><path d="m79.011719 164.292969c21.339843 5.71875 43.273437-6.945313 48.992187-28.289063l-77.273437-20.703125c-5.71875 21.335938 6.941406 43.273438 28.28125 48.992188zm0 0" fill="#2d2d30"/><path d="m192.003906 208.003906h-152c0 61.855469 50.140625 112 112 112 61.855469 0 112-50.144531 112-112zm0 0" fill="#ff5023"/><path d="m164.003906 319.363281c-3.988281.417969-7.992187.632813-12 .640625-61.859375 0-112-50.144531-112-112h24c-.003906 57.214844 43.113282 105.230469 100 111.359375zm0 0" fill="#e6481f"/><path d="m112.003906 208.003906h-32l16 40zm0 0" fill="#57565c"/><path d="m224.003906 208.003906h-32l16 40zm0 0" fill="#57565c"/><path d="m397.660156 466.347656-49.144531-49.136718c-28.589844-28.445313-44.617187-67.144532-44.511719-107.476563v-154.273437c0-82.792969-65.707031-152.488282-146.472656-155.359376-41.246094-1.503906-81.328125 13.832032-111.039062 42.484376-29.707032 28.648437-46.492188 68.144531-46.48828175 109.417968v192c.08203125 75.078125 60.92187475 135.917969 135.99999975 136h256c3.234375 0 6.148438-1.949218 7.386719-4.9375 1.238281-2.988281.554687-6.429687-1.730469-8.71875zm-261.65625-2.34375c-66.246094-.074218-119.925781-53.757812-120-120v-192c0-75.089844 60.859375-135.972656 135.949219-136 1.664063 0 3.335937 0 5.015625.089844 72.25 2.566406 131.035156 65.085938 131.035156 139.367188v154.273437c-.117187 44.574219 17.597656 87.347656 49.199219 118.789063l35.488281 35.480468zm0 0"/><path d="m214.660156 173.660156c14.917969-.003906 28.988282-6.949218 38.070313-18.789062 9.078125-11.839844 12.136719-27.230469 8.273437-41.640625-1.144531-4.269531-5.535156-6.804688-9.800781-5.65625l-77.273437 20.703125c-4.269532 1.144531-6.800782 5.53125-5.65625 9.800781 5.65625 20.972656 24.664062 35.554687 46.386718 35.582031zm32-48.304687c.121094 14.589843-9.644531 27.414062-23.738281 31.183593-14.09375 3.765626-28.953125-2.476562-36.128906-15.183593zm0 0"/><path d="m76.9375 172.003906c12.296875 3.308594 25.40625 1.59375 36.433594-4.773437 11.03125-6.367188 19.074218-16.859375 22.359375-29.160157 1.144531-4.269531-1.386719-8.65625-5.65625-9.800781l-77.273438-20.695312c-4.265625-1.148438-8.65625 1.386719-9.796875 5.65625-6.828125 25.59375 8.351563 51.886719 33.933594 58.773437zm40.289062-30.617187c-7.171874 12.707031-22.03125 18.949219-36.128906 15.183593-14.09375-3.765624-23.855468-16.59375-23.734375-31.183593zm0 0"/><path d="m264.003906 200.003906h-224c-4.417968 0-8 3.582032-8 8 0 66.273438 53.722656 120 120 120 66.273438 0 120-53.726562 120-120 0-4.417968-3.582031-8-8-8zm-51.816406 16-4.183594 10.464844-4.1875-10.464844zm-112 0-4.183594 10.464844-4.1875-10.464844zm51.816406 96c-54.3125-.066406-99.449218-41.855468-103.699218-96h26.28125l13.984374 34.976563c1.210938 3.042969 4.15625 5.039062 7.433594 5.039062 3.273438 0 6.21875-1.996093 7.429688-5.039062l13.984375-34.976563h69.167969l13.984374 34.976563c1.210938 3.042969 4.15625 5.039062 7.433594 5.039062 3.273438 0 6.21875-1.996093 7.429688-5.039062l13.984375-34.976563h26.28125c-4.246094 54.144532-49.386719 95.933594-103.695313 96zm0 0"/></svg>