<svg height="480pt" viewBox="0 0 480 480.47976" width="480pt" xmlns="http://www.w3.org/2000/svg"><path d="m160.246094 104.480469c-26.757813 15.214843-60.78125 5.976562-76.171875-20.683594-15.394531-26.65625-6.382813-60.742187 20.171875-76.308594zm0 0" fill="#ff5023"/><path d="m320.246094 104.480469c26.761718 15.214843 60.785156 5.976562 76.175781-20.683594 15.394531-26.65625 6.382813-60.742187-20.175781-76.308594zm0 0" fill="#ff5023"/><path d="m472.246094 240.480469v40c.011718 6.59375-2.691406 12.898437-7.472656 17.4375-4.78125 4.539062-11.222657 6.914062-17.804688 6.5625-13.042969-1.203125-22.953125-12.265625-22.722656-25.359375v-14.640625c0-4.417969-3.578125-8-8-8h-16c-8.824219.027343-15.972656 7.171875-16 16v184c-.023438 8.824219-7.171875 15.972656-16 16h-34.71875c-3.210938-.003907-6.105469-1.925781-7.359375-4.878907l-21.921875-51.121093-21.917969 51.121093c-1.253906 2.953126-4.148437 4.875-7.359375 4.878907h-69.441406c-3.210938-.003907-6.105469-1.925781-7.359375-4.878907l-21.921875-51.121093-21.917969 51.121093c-1.253906 2.953126-4.148437 4.875-7.359375 4.878907h-34.722656c-8.824219-.027344-15.972656-7.175781-16-16v-184c-.023438-8.828125-7.171875-15.972657-16-16h-16c-4.417969 0-8 3.582031-8 8v16c.011718 6.59375-2.691406 12.898437-7.472656 17.4375-4.78125 4.539062-11.222657 6.914062-17.804688 6.5625-13.042969-1.203125-22.953125-12.265625-22.722656-25.359375v-38.640625c0-17.671875 14.328125-32 32-32h48c4.421875 0 8-3.582031 8-8v-24c.011718-40.472657 17.046875-79.074219 46.9375-106.363281 29.890625-27.285157 69.878906-40.742188 110.183594-37.078126 74.921874 7.867188 131.589843 71.390626 130.878906 146.71875v20.722657c0 4.417969 3.582031 8 8 8h48c17.675781 0 32 14.328125 32 32zm0 0" fill="#e6e7e8"/><g fill="#cacbcc"><path d="m32.246094 240.480469v38.640625c-.019532 8.960937 4.574218 17.304687 12.160156 22.078125-4.054688 2.398437-8.734375 3.539062-13.4375 3.28125-13.042969-1.203125-22.953125-12.265625-22.722656-25.359375v-38.640625c0-17.671875 14.328125-32 32-32h24c-17.671875 0-32 14.328125-32 32zm0 0"/><path d="m136.246094 472.480469h-24c-8.824219-.027344-15.972656-7.175781-16-16v-184c0-7.015625-4.574219-13.210938-11.277344-15.28125 1.023438-.480469 2.144531-.726563 3.277344-.71875h16c8.828125.027343 15.976562 7.171875 16 16v184c.027344 8.824219 7.175781 15.972656 16 16zm0 0"/><path d="m252.40625 32.960938c-74.671875 6.191406-132.132812 68.589843-132.160156 143.519531v24c0 4.417969-3.578125 8-8 8h-24c4.421875 0 8-3.582031 8-8v-24c.007812-40.308594 16.898437-78.765625 46.574218-106.042969 29.679688-27.273438 69.425782-40.867188 109.585938-37.476562zm0 0"/></g><path d="m328.246094 192.480469h-176c0 48.601562 39.402344 88 88 88 48.601562 0 88-39.398438 88-88zm0 0" fill="#ff5023"/><path d="m252.246094 279.601562c-3.96875.613282-7.980469.910157-12 .878907-23.339844.011719-45.730469-9.253907-62.238282-25.761719-16.503906-16.503906-25.773437-38.894531-25.761718-62.238281h24c-.046875 43.96875 32.429687 81.199219 76 87.121093zm0 0" fill="#e6481f"/><path d="m216.246094 192.480469h-32l16 40zm0 0" fill="#ffd422"/><path d="m296.246094 192.480469h-32l16 40zm0 0" fill="#ffd422"/><path d="m216.246094 136.480469c0 13.253906-10.742188 24-24 24-13.253906 0-24-10.746094-24-24 0-13.253907 10.746094-24 24-24 13.257812 0 24 10.746093 24 24zm0 0" fill="#ff5023"/><path d="m312.246094 136.480469c0 13.253906-10.742188 24-24 24-13.253906 0-24-10.746094-24-24 0-13.253907 10.746094-24 24-24 13.257812 0 24 10.746093 24 24zm0 0" fill="#ff5023"/><path d="m336.246094 192.480469c0-4.417969-3.578125-8-8-8h-176c-4.417969 0-8 3.582031-8 8 0 53.019531 42.984375 96 96 96 53.019531 0 96-42.980469 96-96zm-51.8125 8-4.1875 10.464843-4.183594-10.464843zm-80 0-4.1875 10.464843-4.183594-10.464843zm35.8125 72c-41.066406-.046875-75.445313-31.144531-79.597656-72h18.183593l13.984375 34.96875c1.210938 3.042969 4.15625 5.039062 7.429688 5.039062 3.277344 0 6.222656-1.996093 7.433594-5.039062l13.984374-34.96875h37.167969l13.984375 34.96875c1.210938 3.042969 4.15625 5.039062 7.429688 5.039062 3.277344 0 6.222656-1.996093 7.433594-5.039062l13.984374-34.96875h18.183594c-4.152344 40.855469-38.53125 71.953125-79.601562 72zm0 0"/><path d="m192.246094 168.480469c17.675781 0 32-14.328125 32-32s-14.324219-32-32-32c-17.671875 0-32 14.328125-32 32s14.328125 32 32 32zm0-48c8.839844 0 16 7.164062 16 16 0 8.835937-7.160156 16-16 16-8.835938 0-16-7.164063-16-16 0-8.835938 7.164062-16 16-16zm0 0"/><path d="m288.246094 168.480469c17.675781 0 32-14.328125 32-32s-14.324219-32-32-32c-17.671875 0-32 14.328125-32 32s14.328125 32 32 32zm0-48c8.839844 0 16 7.164062 16 16 0 8.835937-7.160156 16-16 16-8.835938 0-16-7.164063-16-16 0-8.835938 7.164062-16 16-16zm0 0"/><path d="m440.246094 200.480469h-48v-20.722657c-.015625-23.609374-5.378906-46.914062-15.6875-68.15625 9.605468-5.53125 17.574218-13.507812 23.089844-23.121093 8.507812-14.691407 10.824218-32.160157 6.433593-48.558594s-15.125-30.378906-29.835937-38.851563c-3.824219-2.203124-8.710938-.890624-10.917969 2.929688l-19.039063 32.96875c-26-20.367188-57.320312-32.804688-90.210937-35.824219-5.589844-.441406-10.917969-.664062-15.832031-.664062-38.410156.082031-75.734375 12.742187-106.269532 36.046875l-18.800781-32.527344c-2.207031-3.828125-7.101562-5.136719-10.929687-2.929688-14.710938 8.472657-25.449219 22.449219-29.84375 38.847657-4.390625 16.398437-2.078125 33.871093 6.429687 48.5625 5.398438 9.367187 13.113281 17.191406 22.398438 22.726562-9.789063 20.371094-14.90625 42.671875-14.984375 65.273438v24h-48c-22.078125.027343-39.972656 17.917969-40 40v38.640625c-.386719 17.410156 12.929687 32.074218 30.296875 33.359375 8.777343.46875 17.363281-2.695313 23.738281-8.75 6.375-6.050781 9.980469-14.460938 9.964844-23.25v-16h16c4.421875 0 8 3.582031 8 8v184c0 13.253906 10.746094 24 24 24h34.730468c6.402344-.003907 12.183594-3.820313 14.703126-9.703125l14.566406-33.992188 14.5625 33.984375c2.515625 5.890625 8.304687 9.710938 14.710937 9.710938h69.457031c6.402344-.003907 12.183594-3.820313 14.703126-9.703125l14.566406-33.992188 14.5625 33.984375c2.515625 5.890625 8.304687 9.710938 14.710937 9.710938h34.726563c13.257812 0 24-10.746094 24-24v-184c0-4.417969 3.582031-8 8-8h16v14.640625c-.386719 17.410156 12.929687 32.074218 30.296875 33.359375 8.777343.46875 17.363281-2.695313 23.738281-8.75 6.375-6.050781 9.980469-14.460938 9.964844-23.25v-40c-.023438-22.082031-17.917969-39.972657-40-40zm-65.398438-180.984375c18.0625 14.921875 22.6875 40.71875 10.929688 60.984375-4.03125 7.042969-9.820313 12.921875-16.800782 17.0625-6.433593-10.375-14.050781-19.972657-22.695312-28.589844zm-134.601562-3.015625c4.496094 0 9.402344.207031 14.488281.605469 30.550781 2.84375 59.582031 14.628906 83.464844 33.890624l-4.039063 6.992188c-22.808594-18.722656-50.703125-30.179688-80.089844-32.898438-38.828124-3.613281-77.546874 7.976563-108 32.335938l-4-6.917969c28.027344-21.949219 62.578126-33.917969 98.175782-34.007812zm-145.550782 64c-11.746093-20.269531-7.113281-46.0625 10.953126-60.976563l28.199218 48.726563c-8.8125 8.671875-16.535156 18.390625-22.992187 28.9375-6.6875-4.136719-12.238281-9.871094-16.160157-16.6875zm369.550782 200c.007812 4.398437-1.796875 8.601562-4.984375 11.628906-3.191407 3.027344-7.488281 4.609375-11.878907 4.371094-8.804687-.945313-15.398437-8.507813-15.136718-17.359375v-14.640625c0-8.835938-7.160156-16-16-16h-16c-13.253906 0-24 10.746093-24 24v184c0 4.417969-3.578125 8-8 8h-34.726563l-21.917969-51.152344c-1.261718-2.941406-4.15625-4.847656-7.355468-4.847656-3.195313 0-6.089844 1.90625-7.351563 4.847656l-21.917969 51.152344h-69.457031l-21.917969-51.152344c-1.261718-2.941406-4.15625-4.847656-7.355468-4.847656-3.195313 0-6.089844 1.90625-7.351563 4.847656l-21.917969 51.152344h-34.730468c-4.417969 0-8-3.582031-8-8v-184c0-13.253907-10.742188-24-24-24h-16c-8.835938 0-16 7.164062-16 16v16c.007812 4.398437-1.796875 8.601562-4.984375 11.628906-3.191407 3.027344-7.488281 4.609375-11.878907 4.371094-8.804687-.945313-15.398437-8.507813-15.136718-17.359375v-38.640625c0-13.253907 10.746094-24 24-24h48c8.839844 0 16-7.164063 16-16v-24c.011718-38.226563 16.101562-74.6875 44.332031-100.460938 28.234375-25.773437 66.007813-38.480469 104.078125-35.011719 70.6875 7.707032 124.082031 67.648438 123.589844 138.75v20.722657c0 8.835937 7.164062 16 16 16h48c13.257812 0 24 10.746093 24 24zm0 0"/><path d="m187.398438 343.832031-6.300782-14.703125-6.242187 2.679688-7.449219-14.90625-14.316406 7.152344 7.03125 14.066406-11.617188 4.976562-5.097656-10.195312-14.316406 7.152344 4.679687 9.359374-8.671875 3.714844 6.300782 14.703125 9.539062-4.089843 4.152344 8.3125 14.316406-7.152344-3.742188-7.46875 11.625-4.984375 9.800782 19.605469 14.316406-7.152344-9.382812-18.765625zm0 0"/><path d="m344.246094 304.480469h-16v8h-8v-8h-16v8h-8v16h8v8h16v-8h8v16h16v-16h16v-16h-16zm0 0"/></svg>